<?xml version="1.0" standalone="no"?>
<!DOCTYPE svg PUBLIC "-//W3C//DTD SVG 20010904//EN"
 "http://www.w3.org/TR/2001/REC-SVG-20010904/DTD/svg10.dtd">
<svg version="1.0" xmlns="http://www.w3.org/2000/svg"
 width="1536.000000pt" height="1024.000000pt" viewBox="0 0 1536.000000 1024.000000"
 preserveAspectRatio="xMidYMid meet">

<g transform="translate(0.000000,1024.000000) scale(0.100000,-0.100000)"
fill="#ea580c" stroke="none">
<path d="M5986 8068 c-11 -18 -83 -132 -161 -253 -224 -348 -267 -416 -262
-421 2 -2 829 -4 1838 -4 1228 0 1855 -4 1899 -11 80 -13 140 -39 196 -84 44
-36 60 -44 48 -22 -4 6 5 1 19 -12 28 -26 38 -42 12 -21 -24 20 -17 2 14 -38
16 -20 41 -68 57 -107 39 -98 39 -211 -1 -305 -15 -36 -28 -74 -29 -85 -2 -11
-7 -20 -12 -21 -5 0 -37 -29 -72 -63 -41 -41 -86 -74 -130 -94 l-67 -32 -2255
-5 c-2045 -5 -2258 -6 -2290 -21 -45 -21 -89 -65 -106 -106 -28 -65 -11 -176
33 -225 18 -20 38 -25 27 -6 -4 7 -3 8 5 4 6 -4 9 -11 6 -16 -3 -5 9 -17 27
-27 31 -17 97 -18 1136 -21 606 -1 1102 -6 1102 -10 0 -4 -28 -29 -61 -57
-113 -93 -253 -275 -334 -436 -46 -90 -101 -251 -127 -373 -31 -143 -31 -386
1 -536 36 -171 123 -400 140 -371 6 10 13 10 29 2 25 -13 33 -33 21 -52 -7
-11 -13 -9 -30 11 -19 24 -19 23 2 -20 76 -156 251 -355 434 -492 77 -58 95
-68 76 -45 -14 17 -12 18 37 17 4 0 10 -11 14 -25 6 -23 4 -24 -15 -14 -19 9
-18 7 3 -10 43 -35 223 -119 337 -156 59 -20 158 -46 218 -57 107 -21 143 -22
1245 -27 1200 -6 1155 -4 1222 -52 16 -12 32 -19 35 -15 9 9 60 -32 60 -49 0
-10 -10 -4 -29 17 l-28 33 29 -45 c42 -66 64 -141 59 -203 -8 -103 -81 -206
-176 -250 l-47 -22 -1175 -3 -1175 -3 -114 -156 c-63 -86 -114 -162 -114 -169
0 -7 -4 -11 -8 -9 -10 7 -200 -255 -193 -266 3 -5 1 -8 -4 -7 -5 2 -24 -15
-42 -37 l-32 -40 1452 -3 c1388 -2 1456 -1 1543 17 194 39 350 123 488 261 80
80 183 233 175 263 -2 9 -1 15 4 12 4 -3 17 19 28 48 73 184 91 461 43 650
-24 92 -70 199 -82 191 -5 -3 -6 1 -3 9 10 27 -168 257 -199 257 -7 0 -1 -10
13 -21 l25 -21 -25 14 c-14 9 -25 21 -25 29 0 39 -222 164 -366 206 l-94 27
-1165 6 c-1146 6 -1166 6 -1245 27 -119 32 -235 84 -324 146 -43 31 -82 53
-86 49 -5 -4 -5 -2 -2 4 3 6 -10 26 -29 45 -20 19 -56 62 -82 96 -31 43 -48
59 -54 50 -5 -9 -12 -9 -25 -1 -28 17 -43 56 -35 89 l8 29 13 -33 c8 -17 15
-30 17 -28 3 2 -7 29 -21 59 -14 30 -34 88 -44 128 -10 40 -20 68 -22 61 -11
-32 4 224 17 294 19 105 102 276 179 368 31 37 53 67 50 67 -4 0 -2 7 5 15 7
8 15 13 19 11 3 -2 35 18 71 45 82 63 222 132 325 161 78 22 95 22 835 28 654
6 764 9 825 23 106 26 162 46 260 94 408 203 648 629 621 1102 -8 138 -15 179
-28 159 -5 -8 -6 -4 -2 14 6 27 -11 98 -48 196 -15 41 -23 51 -30 41 -7 -11
-8 -9 -4 5 17 52 -140 274 -283 399 -93 82 -280 196 -256 156 5 -8 1 -9 -16
-4 -34 10 -51 29 -19 21 49 -13 -8 14 -83 40 -159 55 -124 54 -1927 54 l-1666
0 -18 -32z m3943 -212 c19 -20 20 -24 6 -22 -16 2 -35 23 -35 39 0 12 5 9 29
-17z m171 -166 c0 -4 -13 -7 -30 -8 -30 -1 -36 10 -24 43 6 14 9 13 30 -6 13
-12 24 -26 24 -29z m83 -133 c-3 -6 -11 -3 -19 8 -7 10 -11 22 -7 28 3 6 11 3
19 -8 7 -10 11 -22 7 -28z m-4547 -75 c-18 -16 -18 -16 -6 6 6 13 14 21 18 18
3 -4 -2 -14 -12 -24z m3809 -110 c-3 -3 0 -11 6 -19 14 -16 8 -16 -26 -1 -15
7 -21 14 -15 18 12 8 42 9 35 2z m174 -186 c-3 -3 -11 5 -18 17 -13 21 -12 21
5 5 10 -10 16 -20 13 -22z m-2478 -2359 c-6 -6 -14 -8 -18 -4 -4 4 -1 13 5 19
7 7 13 23 14 38 1 19 2 16 5 -9 3 -18 0 -38 -6 -44z m-627 -112 c-4 -8 -8 -15
-10 -15 -2 0 -4 7 -4 15 0 8 4 15 10 15 5 0 7 -7 4 -15z m82 -292 c-4 -4 -11
-1 -16 7 -16 25 -11 35 7 17 9 -9 13 -20 9 -24z m3734 -373 l25 -8 -25 -1
c-14 0 -32 4 -40 9 -13 9 -13 10 0 9 8 -1 26 -5 40 -9z m260 -110 c22 -18 23
-20 5 -17 -25 3 -45 15 -45 28 0 14 12 11 40 -11z m-3608 -75 c2 3 5 -2 5 -10
0 -19 1 -20 -28 12 -17 20 -18 23 -3 10 11 -9 23 -15 26 -12z m3911 -240 c-7
-21 -12 -19 -10 4 0 11 5 18 9 15 4 -3 5 -11 1 -19z m-3497 -40 c19 -19 7 -19
-26 0 -20 11 -21 14 -7 15 10 0 25 -7 33 -15z m211 -81 c-3 -3 -12 -4 -19 -1
-8 3 -5 6 6 6 11 1 17 -2 13 -5z m220 -50 c-3 -3 -12 -4 -19 -1 -8 3 -5 6 6 6
11 1 17 -2 13 -5z m3170 -56 c-3 -8 -6 -5 -6 6 -1 11 2 17 5 13 3 -3 4 -12 1
-19z"/>
<path d="M3880 5558 c-77 -39 -114 -121 -91 -199 6 -21 15 -38 19 -38 4 1 10
0 15 -1 13 -4 27 -7 38 -9 8 -1 8 -6 -1 -16 -11 -14 -15 -14 -34 2 -15 13 -14
10 4 -11 14 -16 43 -37 65 -47 38 -18 89 -19 1045 -19 661 0 1018 4 1042 10
41 12 92 50 110 83 31 60 26 160 -10 189 -10 8 -13 9 -9 1 5 -7 0 -9 -13 -6
-12 3 -20 14 -20 25 0 18 2 19 17 7 14 -12 15 -12 9 0 -5 7 -27 22 -50 32 -39
18 -86 19 -1066 19 l-1026 0 -44 -22z m-10 -288 c0 -5 -2 -10 -4 -10 -3 0 -8
5 -11 10 -3 6 -1 10 4 10 6 0 11 -4 11 -10z"/>
<path d="M8555 5291 c-91 -5 -116 -10 -147 -29 -26 -16 -80 -85 -183 -232 -80
-115 -150 -222 -156 -239 -22 -64 13 -140 77 -167 28 -12 274 -14 1483 -14
l1450 0 20 29 c24 33 29 55 6 25 -8 -10 -15 -14 -15 -8 0 14 25 36 32 29 8 -8
90 104 83 115 -3 5 0 12 6 16 8 5 9 3 4 -7 -14 -25 11 3 44 50 17 24 28 48 24
54 -3 6 -1 7 5 3 13 -8 35 28 24 39 -4 5 -2 5 4 2 12 -7 108 118 100 131 -3 4
7 21 20 38 l26 29 -22 -35 -22 -35 31 35 c17 19 29 40 26 47 -2 7 5 22 16 35
11 13 18 17 14 11 -3 -7 -4 -13 -1 -13 10 0 67 83 61 88 -7 8 -2877 10 -3010
3z m-427 -614 c6 -5 12 -6 12 -2 0 5 9 0 20 -10 23 -21 18 -35 -11 -30 -25 5
-47 22 -60 46 -8 15 -6 17 8 12 10 -3 24 -10 31 -16z"/>
<path d="M4743 4659 c-23 -11 -51 -35 -62 -52 -26 -42 -36 -117 -22 -159 13
-40 64 -92 104 -107 19 -7 253 -11 708 -11 l680 0 -7 23 c-9 32 -23 55 -24 40
0 -14 -40 15 -40 29 0 13 28 9 34 -4 7 -15 4 -2 -23 107 -11 44 -22 97 -26
118 l-6 37 -637 0 c-626 0 -638 0 -679 -21z m1324 -101 c-3 -7 -5 -2 -5 12 0
14 2 19 5 13 2 -7 2 -19 0 -25z"/>
</g>
</svg>
